Patient4_TMGait_0pt4_01_right_27_EMG.mot
version=1
nRows=36
nColumns=33
inDegrees=no
endheader
time	1LAddLong	2LGlutMax	3LGlutMed	4LIliopsoas	5LSemiMemb	6LBicFemLong	7LRecFem	8LVastMed	9LVastLat	10LGasMed	11LTibAnt	12lTibPost	13LPeroneusLong	14LSol	15LExtDigLong	16LFlexDigLong	17RAddLong	18RGlutMax	19RGlutMed	20RIliopsoas	21RSemiMemb	22RBicFemLong	23RRecFem	24RVastMed	25RVastLat	26RGasMed	27RTibAnt	28RTibPost	29RPeroneusLong	30RSol	31RExtDigLong	32RFlexDigLong
35.73	0.005646	-0.21393	0.00412	-0.015259	0.066223	0.085907	0.009918	-0.00351	-0.009308	0.025482	-0.016785	0.002747	0.52399	-0.087585	0.071564	0.004425	0.009766	0.103	0.25131	0.022125	-0.002441	-0.084991	-0.12466	-0.088043	0.007629	-0.007019	0.27741	0.005798	0.26321	-0.011292	-0.001373	-0.004883
35.731	0.017853	-0.2005	-0.001678	-0.015106	0.12405	0.29709	-0.045013	0.001068	-0.035095	-0.039978	-0.1062	0.006561	0.61569	-0.008392	-0.15198	0.010376	0.006104	0.16602	0.16129	-0.034943	-0.016937	-0.08667	-0.11398	-0.075684	-0.00473	-0.007935	-0.019531	0.000153	0.15076	-0.007324	-0.002747	-0.010071
35.732	0.046539	-0.21103	-0.053864	-0.015869	0.010986	0.41428	-0.1265	-0.005035	0.020294	-0.057068	-0.058746	0.002747	0.12634	0.076141	-0.37796	0.019226	0.015106	0.1564	0.035858	-0.12634	-0.004578	-0.071869	-0.15274	-0.025787	0.0177	-0.011749	-0.011597	0.00412	-0.34668	-0.088654	-0.000305	-0.007477
35.733	0.0383	-0.18341	-0.060577	-0.004578	-0.018005	0.38742	-0.16892	0.002899	0.093079	0.00412	-0.087433	-0.004272	-0.4657	-0.0177	-0.30411	0.002289	0.005188	0.12497	0.2742	-0.12619	0.002594	-0.05188	-0.12756	-0.035095	0	-0.012207	0.034485	0.003204	-0.87326	-0.10315	-0.001526	-0.018311
35.734	0.015106	-0.16373	-0.035095	-0.001678	0.075226	0.3685	-0.11826	0.00946	0.12833	0.011749	-0.073242	0.000458	-0.32761	0.010681	-0.086365	0.00061	0.011292	0.1004	0.23956	-0.025177	0.006104	-0.01358	-0.15182	-0.050049	0.012512	-0.018158	0.21576	0.005188	-0.46829	0.053711	-0.001221	-0.016785
35.735	-0.005341	-0.1828	-0.080414	0.018005	0.055695	0.38803	-0.11917	0.018616	0.15595	-0.004425	-0.07431	-0.000305	-0.24979	0.066833	0.056152	0.005951	0.00473	0.067749	0.10223	0.073242	0.017242	0.019531	-0.15549	-0.034637	0.018463	-0.004883	0.52826	-0.008087	-0.42053	0.06134	-0.002441	-0.015259
35.736	-0.003357	-0.13931	0.013428	0.012817	-0.056152	0.54794	-0.16357	0.020294	0.074158	0.048218	-0.092468	0.000305	-0.001678	-0.014954	0.011139	-0.009613	0.007935	0.06073	0.23773	0.13611	0.033722	-0.007019	-0.14069	-0.059357	0.006866	-0.014648	0.75211	0.002136	-0.25375	0.10819	-0.005188	-0.024109
35.737	-0.091705	-0.12787	0.079193	0.005188	-0.11765	0.42191	-0.13718	0.012817	-0.022736	0.010834	-0.087433	0	0.24963	-0.1413	0.009308	-0.003052	0.027771	0.052032	0.34378	-0.095978	0.032043	-0.045319	-0.09964	-0.08255	0.002747	-0.024261	0.63278	-0.003204	0.27451	0.21652	-0.001678	-0.027008
35.738	-0.020447	-0.15671	0.12619	0	-0.1593	0.18799	-0.10574	0.011749	-0.033417	0.032501	-0.05249	0.001831	0.04303	-0.22919	0.08316	0	0.008545	0.092316	0.54321	-0.2092	0.01236	-0.047302	-0.14328	-0.13382	0.008392	-0.020142	-0.003052	0.00473	-0.14038	0.13473	-0.002747	-0.023041
35.739	-0.036469	-0.16068	0.063171	0.000763	-0.10407	0.022278	-0.030212	0.014801	-0.088501	0.011597	-0.027771	-0.007782	-0.17029	-0.11948	0.15457	-0.009613	-0.018768	0.03891	0.32272	-0.15442	-0.004425	-0.009155	-0.16876	-0.07782	0.009766	-0.00946	-0.42084	-0.00061	-0.31708	0.040588	-0.003815	-0.023193
35.74	-0.038147	-0.19211	0.051575	-0.014343	-0.015106	-0.028839	0.004272	0.013733	-0.19852	0.034027	-0.010834	0.003052	-0.079193	-0.020599	0.11841	-0.010681	-0.018005	0.041504	0.18845	-0.027924	-0.014648	-0.001068	-0.1619	-0.035553	-0.013428	-0.013428	-0.31006	0.005798	-0.51407	0.015869	-0.001678	-0.016479
35.741	-0.023346	-0.17532	-0.008545	-0.001526	0.022278	-0.042114	-0.020447	0.012665	-0.27039	0.038757	-0.028839	0.011444	-0.053406	0.005341	0.074463	-0.00412	-0.001526	0.092163	0.30609	0.20416	-0.025482	-0.006256	-0.14862	0.002136	0.003815	-0.006866	-0.10986	-0.001831	0.21164	-0.030823	-0.002441	-0.011292
35.742	-0.032043	-0.17425	-0.016327	0.002747	-0.057983	-0.06073	-0.059357	-0.005493	-0.33432	0.025635	-0.035248	0.002289	-0.052795	0.025787	0.068207	-0.003967	0.006104	0.062256	0.26138	0.25177	-0.0383	0.014191	-0.12024	0.003815	0.011292	-0.004578	-0.17303	0.007324	1.0837	-0.10941	-0.002594	-0.010834
35.743	-0.00885	-0.168	-0.029755	0.010529	-0.16266	-0.17303	-0.041656	-0.019379	-0.27252	0.010529	-0.02594	0.005035	-0.048065	-0.021057	0.079041	-0.01236	-0.044861	0.054016	0.20203	0.14404	-0.026703	-0.028687	-0.12024	-0.033722	0.017548	-0.016785	0.14023	0.004425	0.57938	-0.085907	0.003662	-0.014648
35.744	-0.00824	-0.15442	-0.011292	-0.005798	-0.23865	-0.41977	-0.024414	-0.014954	-0.16174	0.014496	-0.008392	-0.002899	0.000153	-0.031433	0.13504	-0.011597	-0.039978	0.056763	0.24231	0.041199	-0.021362	-0.013428	-0.17014	-0.033875	0.014343	-0.024719	0.3656	0.001831	0.016174	-0.051727	-0.000458	-0.01236
35.745	0.030518	-0.103	0.017395	-0.002136	-0.072632	-0.56397	-0.044708	-0.005951	-0.1181	0.00351	0.03006	0.010071	0.021973	0.000763	0.089569	-0.012817	-0.027008	0.07019	0.20798	-0.046082	-0.028687	-0.002289	-0.15854	-0.052338	0.011902	-0.016174	0.11551	-0.002441	0.13596	-0.067139	-0.002747	-0.010376
35.746	0.06012	-0.15961	0.05661	-0.010376	0.14069	-0.336	-0.060425	-0.003357	-0.025635	0.01236	0.051422	0.002899	0.002441	-0.00824	0.026398	-0.011902	-0.003204	0.059204	0.31189	-0.085297	-0.019989	0.010376	-0.18036	-0.064392	0.03418	-0.011444	0.23972	-0.004578	0.019073	-0.084534	-0.010834	-0.010529
35.747	0.053253	-0.16403	0.021515	-0.012665	0.2298	-0.15198	-0.026398	-0.015564	0.028229	0.022583	0.068359	-0.005188	-0.024414	0.015869	0.016479	-0.000305	-0.001373	0.038605	0.003052	0.008545	-0.010681	0.032654	-0.16876	-0.007019	0.041199	-0.006561	0.47257	0.001831	-0.31189	-0.13687	-0.001984	-0.016785
35.748	0.040283	-0.15579	-0.015717	0.007477	0.20279	0.020752	-0.047455	-0.011902	0.08728	0.028229	0.04776	-0.000763	-0.043182	0.039063	0.015869	0.003357	0.007324	0.0737	-0.052338	0.032806	-0.008392	0.028076	-0.19424	0.007782	0.051727	-0.006409	0.26596	-0.006409	0.058594	-0.14389	-0.000305	-0.019226
35.749	0.0354	-0.13138	-0.042114	0.003357	0.10788	0.073853	-0.088959	-0.018311	0.004272	0.054016	0.021973	0.001831	-0.000305	0.016174	0.036163	-0.003204	0.038605	0.023346	0.083008	0.080109	0.006256	0.036926	-0.16678	-0.007172	0.073547	-0.006409	0.052338	-0.009003	0.093994	-0.16754	-0.004578	-0.021515
35.75	0.034027	-0.12329	-0.067749	0.011902	0.068665	0.072632	-0.21362	-0.026855	-0.046692	0.040741	-0.019226	0.004425	-0.022888	0.008698	0.04715	0.005646	0.015259	-0.005951	0.23804	0.025635	0.04364	0.02121	-0.18768	0.050201	0.066223	-0.007477	-0.64926	-0.003967	0.24307	-0.22293	0.002747	-0.023041
35.751	0.028381	-0.16693	-0.043182	-0.018311	0.021057	0.038452	-0.2327	-0.028839	-0.02243	0.033875	-0.084534	0.011749	0.045013	0.010681	0.050354	0.003204	-0.027924	0.041504	0.25101	-0.072784	0.067444	0.049133	-0.18646	0.068359	0.0737	-0.007324	-0.71884	0.00473	0.17746	-0.21362	-0.000916	-0.020905
35.752	-0.007477	-0.19531	-0.004425	0.010223	-0.06012	0.044861	-0.072174	-0.019836	0.036621	0.020294	-0.087891	0.010681	0.081024	-0.00412	0.14694	-0.015106	-0.029755	0.006714	0.16312	-0.112	0.049896	0.057526	-0.1857	0.077515	0.063324	0.001678	0.091553	-0.000916	-0.15533	-0.22736	0.000153	-0.017395
35.753	-0.013123	-0.18662	-0.041962	0.005188	-0.094147	0.039368	0.048676	-0.014038	0.068207	0.021973	-0.055695	0.006866	0.018768	0.01358	-0.032654	-0.003967	-0.00946	-0.027618	0.14755	-0.093384	0.039825	0.042877	-0.16419	0.016785	0.053101	0.00351	0.48584	0.000916	0.56229	-0.23438	-0.00061	-0.017395
35.754	-0.017853	-0.15823	-0.012817	-0.003662	-0.092163	0.032501	0.066681	0.006714	-0.028992	0.028381	-0.023804	0.010071	0.000458	0.032043	0.10117	-0.006561	0.015869	0.061188	0.27435	-0.056915	0.0383	0.046997	-0.16968	0.072021	0.056152	0.000153	0.86884	-0.007629	0.019073	-0.10498	-0.001221	-0.017395
35.755	-0.00473	-0.15701	0.004272	-0.000458	0.005341	0.00946	-0.074463	-0.021973	-0.097046	0.021362	0.058899	0.01236	0.044403	0.088196	0.14877	-0.002899	0.01358	0.003357	0.23224	-0.040436	0.032654	0.053406	-0.17456	0.062103	0.040588	-0.002136	0.31494	-0.00351	0.76126	0.014343	-0.002136	-0.010376
35.756	0.011444	-0.13809	-0.035706	-0.005341	0.15793	-0.066223	-0.10757	0.027771	-0.1207	0.019684	0.019379	0.017548	0.016785	0.15564	0.39108	-0.002594	0.027466	0.03067	0.08316	0.055847	0.036621	0.054932	-0.17151	0.016785	0.038605	0.006409	-0.92728	0.005341	1.162	-0.029907	-0.005798	-0.016327
35.757	0.005493	-0.088348	-0.028687	0.003815	0.11749	-0.029602	-0.15884	0.015411	-0.078278	0.005951	-0.023193	0.01709	0.031128	0.22629	0.24979	0.004272	0.028687	0.027771	0.11475	0.05188	0.042877	0.040588	-0.23025	0.11475	0.035095	-0.007935	-0.70541	0.00412	0.18463	-0.048676	-0.001373	-0.024109
35.758	-0.011597	-0.069427	-0.041809	0.024109	0.053253	0.12253	-0.20203	-0.016479	0.023193	0.005646	-0.031891	0.020599	0.077209	0.22125	0.064545	0.004425	0.018311	0.061035	0.19409	0.020142	0.047607	0.014038	-0.22354	0.14358	0.045776	-0.013428	-0.18448	-0.006714	-0.76233	-0.018921	0.002899	-0.018005
35.759	-0.009308	-0.10208	-0.006714	0.008392	0.021515	0.15442	-0.24948	-0.009155	0.12268	0.014801	0.23773	0.02182	0.050964	0.22781	0.20874	0.005646	-0.00885	0.024872	0.159	0.046234	0.059052	-0.020752	-0.14496	0.073395	-0.002441	-0.017395	0.25497	-0.000916	-0.66009	0.11307	0.00885	-0.021667
35.76	-0.006561	-0.10819	0.004578	0.006866	-0.027466	-0.010834	-0.23438	0.002594	0.15869	-0.001678	0.47501	0.014191	0.055084	0.26062	0.71655	-0.07309	0.00412	0.037994	0.17349	0.058136	0.052795	-0.064697	-0.1265	0.010071	0.001678	-0.018158	0.25024	-0.007019	-0.21606	0.22629	0.000763	-0.024261
35.761	-0.012207	-0.091095	-0.01709	0.001373	-0.059204	-0.054626	-0.16769	-0.003204	0.35309	0.004425	0.58945	0.018921	0.049438	0.29694	-0.028381	-1.0698	0.015564	0.033569	0.15808	0.12894	0.028381	-0.048981	-0.10788	-0.005035	-0.024109	-0.01709	-0.014343	0.004425	0.47577	0.13596	-0.000458	-0.019684
35.762	-0.016174	-0.080261	-0.027313	0.002136	-0.02594	0.12711	-0.13519	-0.001678	0.54871	0.047455	0.41504	0.015106	-0.085449	0.23117	-0.13886	0.72784	0.029144	0.046234	0.28336	0.16861	0.022583	-0.079956	-0.13275	-0.052185	-0.038452	-0.007629	-0.14496	0.000153	0.30884	0.14816	0.009155	-0.023193
35.763	-0.019989	-0.02655	-0.030212	0.010376	0.031281	0.27664	-0.082245	-0.016479	0.5986	-0.030823	-0.13596	0.015869	0.006866	0.044861	0.17883	0.44006	0.059357	0.064392	0.23209	0.12817	0.003815	-0.070953	-0.070648	-0.08667	-0.055847	-0.01709	0.007324	-0.00824	0.13367	0.15686	0.004272	-0.024414
35.764	-0.022888	0.001678	-0.0354	-0.00473	0.04364	0.2681	-0.0354	-0.018158	0.45746	-0.086975	-0.48721	0.022125	0.17624	0.000763	-0.67795	-0.077209	0.092316	0.015869	0.16815	0.076599	0.012665	-0.049591	-0.11414	-0.027618	-0.045929	-0.010834	0.16388	-0.012207	-0.10223	0.070801	0.002441	-0.028839
35.765	-0.011139	0.003967	-0.03952	0.000153	0.059204	0.34317	-0.000153	-0.003662	0.215	-0.079041	-0.36835	0.026245	0.15228	0.013123	-0.82413	-0.021515	0.086975	0.024872	0.09613	-0.027313	-0.000305	-0.025787	-0.15121	-0.006561	-0.03891	-0.008392	0.38605	-0.007477	-0.58105	0.005798	0.001373	-0.03067
